<svg viewBox="0 0 100 100" xmlns="http://www.w3.org/2000/svg">
  <!-- Head -->
  <circle cx="50" cy="40" r="30" fill="#AED581" />
  
  <!-- Face BG (slightly lighter) -->
  <circle cx="50" cy="40" r="26" fill="#C5E1A5" />

  <!-- Eyes -->
  <circle cx="38" cy="35" r="4" fill="#333" />
  <circle cx="62" cy="35" r="4" fill="#333" />
  
  <!-- Eye highlights -->
  <circle cx="39.5" cy="33.5" r="1.5" fill="#fff" />
  <circle cx="63.5" cy="33.5" r="1.5" fill="#fff" />

  <!-- Mouth -->
  <path d="M 38 50 Q 50 58 62 50" stroke="#333" stroke-width="2" fill="transparent" />

  <!-- Small leaf accent on head -->
  <path d="M50 10 Q 55 5, 60 10 Q 55 15, 50 10 Z" fill="#689F38" />
  <path d="M50 10 Q 45 5, 40 10 Q 45 15, 50 10 Z" fill="#7CB342" />

  <!-- Body (simple rounded shape) -->
  <ellipse cx="50" cy="80" rx="25" ry="15" fill="#AED581" />
  
  <!-- Optional: Small screen/display on body -->
  <rect x="40" y="72" width="20" height="10" rx="2" ry="2" fill="#C5E1A5" />
  <line x1="42" y1="75" x2="58" y2="75" stroke="#689F38" stroke-width="1" />
  <line x1="42" y1="78" x2="58" y2="78" stroke="#689F38" stroke-width="1" />

</svg>